<svg xml:space="preserve" style="enable-background:new 0 0 500 500;" viewBox="0 0 500 500" y="0px" x="0px" xmlns:xlink="http://www.w3.org/1999/xlink" xmlns="http://www.w3.org/2000/svg" id="Layer_1" version="1.1">
<style type="text/css">
	.st0{fill:#FFFFFF;}
	.st1{fill:url(#SVGID_1_);}
</style>
<g>
	<path d="M487.71,101V301.1c0,15.09-9.6,29.12-25.05,36.6L256.57,437.5c-2.04,0.99-4.31,1.51-6.57,1.51
		c-2.26,0-4.53-0.52-6.57-1.51L37.35,337.71c-15.45-7.48-25.05-21.51-25.05-36.6V101H487.71 M490,98.7H10v202.4
		c0,16.01,10.07,30.78,26.35,38.67l206.09,99.79c2.39,1.16,4.98,1.74,7.57,1.74c2.59,0,5.18-0.58,7.57-1.74l206.09-99.79
		c16.28-7.88,26.35-22.66,26.35-38.67V98.7L490,98.7z" class="st0"></path>
	<linearGradient y2="263.7948" x2="480.622" y1="263.7948" x1="19.378" gradientUnits="userSpaceOnUse" id="SVGID_1_">
		<stop style="stop-color:#E7AC18" offset="0.0542"></stop>
		<stop style="stop-color:#F8C73D" offset="1"></stop>
	</linearGradient>
	<path d="M242.73,427.22L44.7,331.3c-15.65-7.58-25.32-21.78-25.32-37.16V98.7h461.24v195.43
		c0,15.39-9.67,29.59-25.32,37.16l-198.03,95.92C252.68,429.44,247.32,429.44,242.73,427.22z" class="st1"></path>
	<g>
		<path d="M208.47,220.1h-13.44l-30.44-45.99v45.99h-13.44v-67.12h13.44l30.44,46.09v-46.09h13.44V220.1z"></path>
		<path d="M230.36,163.93v16.8h22.56v10.66h-22.56v17.76h25.45v10.95h-38.89v-67.12h38.89v10.95H230.36z"></path>
		<path d="M352.79,153.08l-18.72,67.02h-15.84l-12.58-47.72l-13.16,47.72l-15.75,0.1l-18.05-67.12h14.4l11.81,52.04l13.64-52.04
			h14.98l12.87,51.76l11.91-51.76H352.79z"></path>
		<path d="M112.02,304.74H85.32l-4.42,12.77H66.79l24.1-67.12h15.65l24.1,67.12h-14.21L112.02,304.74z M108.37,293.99l-9.7-28.04
			l-9.7,28.04H108.37z"></path>
		<path d="M169.44,317.51l-14.79-26.12h-6.34v26.12h-13.44v-67.02h25.16c5.18,0,9.6,0.91,13.25,2.74c3.65,1.82,6.39,4.29,8.21,7.39
			c1.82,3.11,2.74,6.58,2.74,10.42c0,4.42-1.28,8.4-3.84,11.95c-2.56,3.55-6.37,6-11.43,7.35l16.04,27.17H169.44z M148.31,281.31
			h11.23c3.65,0,6.37-0.88,8.16-2.64c1.79-1.76,2.69-4.21,2.69-7.35c0-3.07-0.9-5.46-2.69-7.15c-1.79-1.7-4.51-2.54-8.16-2.54
			h-11.23V281.31z"></path>
		<path d="M226.19,317.51l-14.79-26.12h-6.34v26.12h-13.44v-67.02h25.16c5.18,0,9.6,0.91,13.25,2.74c3.65,1.82,6.39,4.29,8.21,7.39
			c1.82,3.11,2.74,6.58,2.74,10.42c0,4.42-1.28,8.4-3.84,11.95c-2.56,3.55-6.37,6-11.43,7.35l16.04,27.17H226.19z M205.06,281.31
			h11.23c3.65,0,6.37-0.88,8.16-2.64c1.79-1.76,2.69-4.21,2.69-7.35c0-3.07-0.9-5.46-2.69-7.15c-1.79-1.7-4.51-2.54-8.16-2.54
			h-11.23V281.31z"></path>
		<path d="M261.81,250.49v67.02h-13.44v-67.02H261.81z"></path>
		<path d="M330.47,250.49l-24.58,67.02h-16.32l-24.58-67.02h14.4l18.44,53.29l18.34-53.29H330.47z"></path>
		<path d="M374.83,304.74h-26.69l-4.42,12.77H329.6l24.1-67.12h15.65l24.1,67.12h-14.21L374.83,304.74z M371.18,293.99l-9.7-28.04
			l-9.7,28.04H371.18z"></path>
		<path d="M411.12,306.85h22.08v10.66h-35.53v-67.02h13.44V306.85z"></path>
	</g>
</g>
</svg>
